<svg xmlns="http://www.w3.org/2000/svg" viewBox="0 0 900 900" fill="none">
  <defs>
    <linearGradient id="bgGlow" x1="450" y1="110" x2="450" y2="760" gradientUnits="userSpaceOnUse">
      <stop stop-color="#A32E14" stop-opacity="0.35"/>
      <stop offset="1" stop-color="#090607" stop-opacity="0"/>
    </linearGradient>
    <linearGradient id="bunTop" x1="236" y1="172" x2="633" y2="325" gradientUnits="userSpaceOnUse">
      <stop stop-color="#F4CF97"/>
      <stop offset="0.55" stop-color="#DFA45F"/>
      <stop offset="1" stop-color="#9E5929"/>
    </linearGradient>
    <linearGradient id="bunBottom" x1="276" y1="624" x2="608" y2="714" gradientUnits="userSpaceOnUse">
      <stop stop-color="#F0C283"/>
      <stop offset="1" stop-color="#B46A32"/>
    </linearGradient>
    <linearGradient id="beef" x1="250" y1="402" x2="649" y2="576" gradientUnits="userSpaceOnUse">
      <stop stop-color="#7A3B21"/>
      <stop offset="0.5" stop-color="#3A1911"/>
      <stop offset="1" stop-color="#8C4728"/>
    </linearGradient>
    <linearGradient id="cheese" x1="290" y1="416" x2="603" y2="557" gradientUnits="userSpaceOnUse">
      <stop stop-color="#FFD979"/>
      <stop offset="1" stop-color="#E39A1C"/>
    </linearGradient>
    <linearGradient id="tomato" x1="272" y1="365" x2="615" y2="412" gradientUnits="userSpaceOnUse">
      <stop stop-color="#E45F55"/>
      <stop offset="1" stop-color="#8B261F"/>
    </linearGradient>
    <linearGradient id="lettuce" x1="243" y1="318" x2="641" y2="401" gradientUnits="userSpaceOnUse">
      <stop stop-color="#98D25A"/>
      <stop offset="1" stop-color="#335E24"/>
    </linearGradient>
    <filter id="shadow" x="95" y="110" width="710" height="660" filterUnits="userSpaceOnUse" color-interpolation-filters="sRGB">
      <feDropShadow dx="0" dy="28" stdDeviation="28" flood-color="#000" flood-opacity="0.38"/>
    </filter>
  </defs>
  <circle cx="450" cy="408" r="290" fill="url(#bgGlow)"/>
  <g filter="url(#shadow)" transform="rotate(-8 450 450)">
    <ellipse cx="455" cy="700" rx="230" ry="42" fill="#000" fill-opacity="0.22"/>
    <path d="M222 298c24-90 121-151 241-151 122 0 226 63 246 151 11 48-14 66-54 66H282c-42 0-72-17-60-66Z" fill="url(#bunTop)"/>
    <ellipse cx="448" cy="280" rx="224" ry="88" fill="#FFE2AF" fill-opacity="0.22"/>
    <path d="M242 347c20 22 47 30 81 28 35-2 62-15 93-12 31 2 53 17 90 16 39-1 65-20 103-20 37 0 60 18 95 9v35c0 20-17 36-38 36H281c-21 0-39-16-39-36v-56Z" fill="#4C301D"/>
    <path d="M244 334c31 23 72 26 103 17 33-9 50-30 86-29 34 1 55 20 93 20 39 0 63-20 103-17 29 2 52 14 73 25-7 37-23 55-67 55H279c-22 0-34-5-45-16-11-10-21-32-15-55Z" fill="url(#lettuce)"/>
    <path d="M266 374c30 11 55 17 89 14 37-3 64-17 92-15 29 3 57 18 97 18 38 0 60-17 92-19 29-2 50 4 78 15-3 26-19 39-44 39H289c-25 0-41-14-43-52Z" fill="url(#tomato)"/>
    <path d="M281 423h321c38 0 68 24 68 55 0 13-5 22-13 30l-40-8-38 46-40-45-45 47-48-49-52 44-43-43-45 35-25-35-34-2c-8-10-13-21-13-34 0-31 30-56 67-56Z" fill="url(#cheese)"/>
    <path d="M246 451h416c31 0 57 29 57 65 0 36-26 64-57 64H246c-31 0-57-28-57-64s26-65 57-65Z" fill="url(#beef)"/>
    <path d="M260 486h387" stroke="#A86843" stroke-width="10" stroke-linecap="round" stroke-opacity="0.4"/>
    <path d="M262 536h372" stroke="#A86843" stroke-width="10" stroke-linecap="round" stroke-opacity="0.38"/>
    <path d="M249 568c23 25 56 40 100 35 46-5 72-33 115-33 41 0 71 26 112 27 42 1 75-16 106-32 0 48-30 86-67 86H298c-39 0-67-39-49-83Z" fill="#51321D" fill-opacity="0.95"/>
    <path d="M251 610c20 11 45 12 66 3 31-13 48-34 84-34 34 0 53 19 86 19 37 0 56-20 91-26 32-6 60 4 82 20-14 38-43 59-73 59H305c-27 0-44-12-54-41Z" fill="#F6E46E" fill-opacity="0.28"/>
    <path d="M276 624h345c28 0 52 23 52 51 0 28-24 51-52 51H276c-29 0-52-23-52-51 0-28 23-51 52-51Z" fill="url(#bunBottom)"/>
    <path d="M271 635c17 17 39 25 65 25h224c25 0 49-8 68-23-4 22-20 42-48 42H316c-28 0-48-17-45-44Z" fill="#FFE0A9" fill-opacity="0.28"/>
    <g fill="#FFE8B8">
      <ellipse cx="316" cy="233" rx="8" ry="4" transform="rotate(26 316 233)"/>
      <ellipse cx="370" cy="208" rx="8" ry="4" transform="rotate(16 370 208)"/>
      <ellipse cx="441" cy="195" rx="8" ry="4" transform="rotate(-6 441 195)"/>
      <ellipse cx="511" cy="208" rx="8" ry="4" transform="rotate(20 511 208)"/>
      <ellipse cx="578" cy="231" rx="8" ry="4" transform="rotate(32 578 231)"/>
      <ellipse cx="340" cy="275" rx="8" ry="4" transform="rotate(8 340 275)"/>
      <ellipse cx="417" cy="252" rx="8" ry="4" transform="rotate(18 417 252)"/>
      <ellipse cx="495" cy="258" rx="8" ry="4" transform="rotate(-18 495 258)"/>
      <ellipse cx="565" cy="287" rx="8" ry="4" transform="rotate(9 565 287)"/>
    </g>
  </g>
</svg>
