<svg xmlns="http://www.w3.org/2000/svg" viewBox="0 0 900 900" fill="none">
  <defs>
    <radialGradient id="glow" cx="0" cy="0" r="1" gradientUnits="userSpaceOnUse" gradientTransform="translate(450 365) rotate(90) scale(280)">
      <stop stop-color="#A32E14" stop-opacity="0.3"/>
      <stop offset="1" stop-color="#090607" stop-opacity="0"/>
    </radialGradient>
    <linearGradient id="fries" x1="271" y1="245" x2="647" y2="639" gradientUnits="userSpaceOnUse">
      <stop stop-color="#FFD875"/>
      <stop offset="1" stop-color="#D58918"/>
    </linearGradient>
    <linearGradient id="tray" x1="246" y1="502" x2="646" y2="709" gradientUnits="userSpaceOnUse">
      <stop stop-color="#2B1F1D"/>
      <stop offset="1" stop-color="#0D0909"/>
    </linearGradient>
    <linearGradient id="cheese" x1="354" y1="433" x2="553" y2="643" gradientUnits="userSpaceOnUse">
      <stop stop-color="#FFD16B"/>
      <stop offset="1" stop-color="#AA4712"/>
    </linearGradient>
    <filter id="shadow" x="130" y="178" width="640" height="586" filterUnits="userSpaceOnUse" color-interpolation-filters="sRGB">
      <feDropShadow dx="0" dy="26" stdDeviation="28" flood-color="#000" flood-opacity="0.36"/>
    </filter>
  </defs>
  <circle cx="450" cy="390" r="290" fill="url(#glow)"/>
  <g filter="url(#shadow)">
    <ellipse cx="450" cy="700" rx="210" ry="42" fill="#000" fill-opacity="0.22"/>
    <path d="M280 528c5-26 28-45 54-45h235c26 0 49 19 54 45l35 147c6 25-13 49-39 49H284c-26 0-45-24-39-49l35-147Z" fill="url(#tray)"/>
    <path d="M310 520c12-9 25-13 42-13h197c17 0 30 4 42 13l-18 80H329l-19-80Z" fill="#111010"/>
    <path d="M286 506c21-20 36-34 47-54 11-21 15-62 34-62 26 0 15 49 18 88 1 11 3 22 7 31l-48 13-58-16Z" fill="url(#fries)"/>
    <path d="M337 428c25-21 40-47 52-77 11-28 22-51 40-51 28 0 19 48 16 90-2 19-2 36 3 50l-54 14-57-26Z" fill="url(#fries)"/>
    <path d="M408 394c25-26 51-58 72-111 10-26 18-47 35-47 30 0 21 48 17 83-4 35-4 62 6 84l-58 20-72-29Z" fill="url(#fries)"/>
    <path d="M486 404c15-28 24-58 29-92 4-31 8-66 31-66 30 0 29 45 34 79 5 31 14 59 30 83l-42 37-82-41Z" fill="url(#fries)"/>
    <path d="M548 451c8-29 9-58 8-94-1-32 2-67 24-67 26 0 31 35 40 66 8 28 20 53 40 72l-23 55-89-32Z" fill="url(#fries)"/>
    <path d="M266 487c19-17 33-35 45-61 11-22 21-47 38-47 24 0 20 42 24 74 3 20 8 38 19 54l-50 15-76-35Z" fill="url(#fries)" opacity="0.95"/>
    <path d="M335 509c20-34 64-59 122-59 54 0 100 22 126 54-18 8-30 21-37 37l-28 67-42-44-35 41-36-44-42 43-28-62c-8-18-21-29-40-33Z" fill="url(#cheese)"/>
    <g stroke="#FFF3CD" stroke-linecap="round" stroke-width="6" opacity="0.68">
      <path d="M323 373l4 9"/>
      <path d="M360 333l3 8"/>
      <path d="M436 268l4 10"/>
      <path d="M585 327l4 9"/>
      <path d="M627 407l4 9"/>
      <path d="M565 289l3 8"/>
      <path d="M495 310l4 9"/>
      <path d="M642 470l4 9"/>
      <path d="M283 451l4 9"/>
    </g>
  </g>
</svg>
